:FULLY-SPECIFIED
:DEGREES
165
root -0.567874014377594 -0.567874014377594 -0.567874014377594 -0.5678755879732001 -0.5678755879732001 -0.5678755879732001
lhipjoint -9.671654586443837e-08 -1.5341245206083327e-07 1.0672170578144923e-06
lfemur -15.986604167548444 -3.8289481265353187 -14.21488212515111
ltibia 19.698117009702326 -1.3500401223102127e-06 1.2139639832627264e-06
lfoot -16.694280067453466 -2.1003955649835876e-06 14.205810780159686
ltoes -52.478723714133714 -1.0483824745462392e-06 -3.7127423929834595e-07
rhipjoint 1.1005675908711953e-07 6.870210827458292e-07 -1.494104084495789e-06
rfemur -6.902658757767056 6.018365691869729 10.715908548268747
rtibia 0.7119243309296219 1.4504169013909543e-08 -8.468176459410459e-07
rfoot -14.859086784646495 -5.858638209906941e-07 -17.01065613735575
rtoes -4.347756916171616 1.3770103100092753e-06 -5.629012848569005e-07
lowerback 24.30348646325202 0.7208036302114914 -1.5003878684201126
upperback 1.9661109337231903 0.6260824600800488 0.9938063980586068
thorax -11.668404041236412 0.4062596785127849 1.8065171604634955
lowerneck -11.457395592112624 -2.029057957114028 -1.9248847656666397
upperneck 23.5797988923852 -3.0151462414105206 2.3060364286666197
head 9.370881229926802 -1.331763944747426 0.7745436119620046
lclavicle -1.4085775951116125e-07 5.4855408257763046e-08 -1.0938974842598547e-06
lhumerus 41.08591695213367 35.40088071345984 42.44047665323602
lradius 24.321332040005974 -7.533466907401976e-08 1.5935248651725948e-06
lwrist -1.5599369864033425e-06 -56.77799994757658 3.761403861832353e-07
lhand -4.562975323145072 2.6246558075710764e-07 -26.656099019086014
lfingers 7.125022823272814 9.845282338726802e-08 3.18924141240953e-07
lthumb 21.213298854421275 -1.2803152392500461e-07 2.20318914769186
rclavicle 1.398304276268298e-07 4.3880174074018323e-07 -1.3740421654916584e-06
rhumerus 34.711434588449585 -30.70417967787603 -29.069274862290513
rradius 32.142282837811386 -1.8122879961623968e-06 -4.181963874696908e-06
rwrist 3.8206128133381035e-07 39.54473940743365 8.540681910595348e-07
rhand -6.972260092956778 2.0321462048512455e-07 -36.68780446630613
rfingers 7.125022396385991 5.1024341088409163e-08 -3.1892353057445414e-07
rthumb 18.897492480477187 1.5447771905696147e-06 -65.78980959509936
166
root -0.567874014377594 -0.567874014377594 -0.567874014377594 -0.5678755879732001 -0.5678755879732001 -0.5678755879732001
lhipjoint -9.671654586443837e-08 -1.5341245206083327e-07 1.0672170578144923e-06
lfemur -15.854219733507964 -3.8587290319770435 -14.176535735603366
ltibia 19.889389627219362 -1.4026119940844348e-06 1.2085722051889595e-06
lfoot -17.12941775909664 2.880773408294982e-07 14.316145656012072
ltoes -52.59184530716747 -6.229543810195486e-07 4.868143764340584e-07
rhipjoint 1.1005675908711953e-07 6.870210827458292e-07 -1.494104084495789e-06
rfemur -6.952436322664462 5.973329558916781 10.826299773181784
rtibia 1.1108348592976054 5.748038364746852e-08 -8.425335151184269e-07
rfoot -15.264077728840522 3.576917136089247e-06 -16.56506996382975
rtoes -4.179447821530985 5.394293510853237e-07 -4.364595293838786e-07
lowerback 23.702050740791965 0.7492581449329117 -1.4673021119154535
upperback 1.6877395304667393 0.6732790672448369 0.9555711058065812
thorax -11.627778076053175 0.42302096273599615 1.7170825567496428
lowerneck -11.457395592112624 -2.029057957114028 -1.9248847656666397
upperneck 23.5797988923852 -3.0151462414105206 2.3060364286666197
head 9.370881229926802 -1.331763944747426 0.7745436119620046
lclavicle -1.4085775951116125e-07 5.4855408257763046e-08 -1.0938974842598547e-06
lhumerus 33.27648014572161 36.36481506573999 35.14889454441056
lradius 24.573229416596043 -1.7750035495201602e-06 1.2615746986226144e-06
lwrist -1.6127159758984212e-06 -57.47427284666227 3.888665996857693e-07
lhand -4.562975323145072 2.6246558075710764e-07 -26.656099019086014
lfingers 7.125022823272814 9.845282338726802e-08 3.18924141240953e-07
lthumb 21.213298854421275 -1.2803152392500461e-07 2.20318914769186
rclavicle 1.398304276268298e-07 4.3880174074018323e-07 -1.3740421654916584e-06
rhumerus 27.51799888290263 -31.61684663024606 -24.560776274191817
rradius 32.33717204049395 -1.084868576518991e-06 -3.555871125873191e-06
rwrist 3.9302119287732167e-07 40.221215003210055 8.785656883270403e-07
rhand -6.972260092956778 2.0321462048512455e-07 -36.68780446630613
rfingers 7.125022396385991 5.1024341088409163e-08 -3.1892353057445414e-07
rthumb 18.897492480477187 1.5447771905696147e-06 -65.78980959509936
167
root -0.567874014377594 -0.567874014377594 -0.567874014377594 -0.5678755879732001 -0.5678755879732001 -0.5678755879732001
lhipjoint -9.671654586443837e-08 -1.5341245206083327e-07 1.0672170578144923e-06
lfemur -15.861253120805786 -3.856951902132371 -14.183937953116367
ltibia 20.144314485159043 -9.558833950782964e-07 -4.685094445757999e-07
lfoot -17.471779283696236 6.925232896781364e-07 14.284741299982
ltoes -52.69363561636817 -1.0457128441688058e-06 7.02096504824967e-07
rhipjoint 1.1005675908711953e-07 6.870210827458292e-07 -1.494104084495789e-06
rfemur -7.021707247453086 5.84938766557726 10.891896056196941
rtibia 1.4678215264574919 6.213480736832223e-08 -8.388963854513299e-07
rfoot -15.651086492497202 1.7693276079689329e-06 -16.18491700255247
rtoes -3.957943932973826 1.4116704173727425e-06 -4.1238563111106924e-07
lowerback 23.188422222754298 0.7652954824649545 -1.4280289510747033
upperback 1.4003114030925568 0.7117194252545216 0.9555573387065355
thorax -11.61962283018418 0.4372004354529426 1.6676319871587506
lowerneck -11.457395592112624 -2.029057957114028 -1.9248847656666397
upperneck 23.5797988923852 -3.0151462414105206 2.3060364286666197
head 9.370881229926802 -1.331763944747426 0.7745436119620046
lclavicle -1.4085775951116125e-07 5.4855408257763046e-08 -1.0938974842598547e-06
lhumerus 25.06855644275266 36.46850075243537 28.271134814375966
lradius 24.917266045089583 -5.7004089222809996e-08 1.6880381263092149e-06
lwrist -1.6473456517146965e-06 -57.91458099150714 3.9721545394686126e-07
lhand -4.562975323145072 2.6246558075710764e-07 -26.656099019086014
lfingers 7.125022823272814 9.845282338726802e-08 3.18924141240953e-07
lthumb 21.213298854421275 -1.2803152392500461e-07 2.20318914769186
rclavicle 1.398304276268298e-07 4.3880174074018323e-07 -1.3740421654916584e-06
rhumerus 20.125751738542238 -31.937711841980335 -20.240090812795547
rradius 32.615365645388565 -1.0894058286053796e-06 -3.622560385767619e-06
rwrist 4.090889734615136e-07 41.180412619300796 9.144892646766096e-07
rhand -6.972260092956778 2.0321462048512455e-07 -36.68780446630613
rfingers 7.125022396385991 5.1024341088409163e-08 -3.1892353057445414e-07
rthumb 18.897492480477187 1.5447771905696147e-06 -65.78980959509936
168
root -0.567874014377594 -0.567874014377594 -0.567874014377594 -0.5678755879732001 -0.5678755879732001 -0.5678755879732001
lhipjoint -9.671654586443837e-08 -1.5341245206083327e-07 1.0672170578144923e-06
lfemur -15.990797903698832 -3.8095922242011486 -14.251178604174203
ltibia 20.477467207210168 -1.0421774922515159e-06 -4.780509050646909e-07
lfoot -17.725560084949937 -1.5246140005553831e-06 14.105665692775313
ltoes -52.82555388999779 1.5152885124515822e-06 1.56713552309168e-06
rhipjoint 1.1005675908711953e-07 6.870210827458292e-07 -1.494104084495789e-06
rfemur -7.0679066469990515 5.660792482214868 10.92897032301177
rtibia 1.7478187281798176 7.256499116852642e-08 1.804167734727371e-08
rfoot -16.01423569783573 2.10423014348531e-06 -15.900123727372328
rtoes -3.697235612354439 -2.743985639220846e-07 -2.922010699184216e-07
lowerback 22.787568665650003 0.76823246380806 -1.3519811979689582
upperback 1.1087854823814842 0.7489302424918981 0.9951587755142693
thorax -11.67112160275243 0.45174865834379047 1.644368362845687
lowerneck -11.457395592112624 -2.029057957114028 -1.9248847656666397
upperneck 23.5797988923852 -3.0151462414105206 2.3060364286666197
head 9.370881229926802 -1.331763944747426 0.7745436119620046
lclavicle -1.4085775951116125e-07 5.4855408257763046e-08 -1.0938974842598547e-06
lhumerus 16.606008410167515 35.72845658605365 22.11734098541687
lradius 25.546946307314936 -1.843124618798871e-06 1.8277981110109597e-06
lwrist -1.6278270201899915e-06 -57.668011162469675 3.925099377956045e-07
lhand -4.562975323145072 2.6246558075710764e-07 -26.656099019086014
lfingers 7.125022823272814 9.845282338726802e-08 3.18924141240953e-07
lthumb 21.213298854421275 -1.2803152392500461e-07 2.20318914769186
rclavicle 1.398304276268298e-07 4.3880174074018323e-07 -1.3740421654916584e-06
rhumerus 12.557902991941758 -31.761902772744204 -16.191236635082028
rradius 33.07225407444364 6.113878995316261e-07 -3.2249778194772045e-06
rwrist 4.2437085170613457e-07 42.058071437079924 9.486473024002799e-07
rhand -6.972260092956778 2.0321462048512455e-07 -36.68780446630613
rfingers 7.125022396385991 5.1024341088409163e-08 -3.1892353057445414e-07
rthumb 18.897492480477187 1.5447771905696147e-06 -65.78980959509936
